<svg width="168" height="41" viewBox="0 0 168 41" fill="none" xmlns="http://www.w3.org/2000/svg">
<path d="M25.9385 1.70483H11.5684L0 13.2732V27.6433L11.5684 39.2118H25.9385L37.5069 27.6433V13.2732L25.9385 1.70483ZM13.5567 27.8241L6.14573 20.4131L13.5567 13.0021C16.3584 10.2004 20.9677 10.2004 23.7695 13.0021L31.1805 20.4131L23.7695 27.8241C20.9677 30.6258 16.4488 30.6258 13.5567 27.8241Z" fill="white"/>
<path d="M53.9929 29.1872C56.2945 29.1872 58.1869 28.0108 58.7751 26.2463V28.9826H62.1763V22.0779C62.1763 20.518 60.9488 19.1882 59.2865 19.1882H54.4277V22.0779H57.88C58.3148 22.0779 58.5961 22.3592 58.5961 22.794C58.5961 24.4562 56.3968 26.0673 54.172 26.0673C51.2055 26.0673 48.8528 23.7402 48.8528 20.0321C48.8528 16.324 51.2055 14.1759 54.2487 14.1759C56.5502 14.1759 58.1358 15.429 58.4171 17.3469H62.2274C61.9973 13.511 58.7751 10.877 54.2742 10.877C49.5433 10.877 45.1959 13.9202 45.1959 20.0321C45.1959 26.144 49.4154 29.1872 53.9929 29.1872Z" fill="white"/>
<path d="M63.6363 28.9826H67.191V10.4934H63.6363V28.9826Z" fill="white"/>
<path d="M74.8586 29.1872C78.8224 29.1872 81.661 26.3742 81.661 22.5382C81.661 18.7023 78.8224 15.8893 74.8586 15.8893C70.8948 15.8893 68.0562 18.7023 68.0562 22.5382C68.0562 26.3742 70.8948 29.1872 74.8586 29.1872ZM74.8586 26.1185C72.9407 26.1185 71.6364 24.6608 71.6364 22.5382C71.6364 20.3901 72.9407 18.9325 74.8586 18.9325C76.7766 18.9325 78.0808 20.3901 78.0808 22.5382C78.0808 24.6608 76.7766 26.1185 74.8586 26.1185Z" fill="white"/>
<path d="M89.615 29.1872C93.4254 29.1872 95.7013 26.5532 95.7013 22.5382C95.7013 18.5233 93.4254 15.8893 89.6661 15.8893C88.055 15.8893 86.802 16.503 86.0859 17.4492V10.4934H82.5313V28.9826H86.0859V27.5761C86.802 28.5735 88.1318 29.1872 89.615 29.1872ZM89.0524 26.1185C87.1344 26.1185 85.8814 24.6864 85.8814 22.5382C85.8814 20.3646 87.1344 18.9325 89.0524 18.9325C90.9192 18.9325 92.1979 20.3646 92.1979 22.5382C92.1979 24.6864 90.9192 26.1185 89.0524 26.1185Z" fill="white"/>
<path d="M101.652 15.8893C98.1226 15.8893 96.0256 17.9607 95.8722 20.5436H99.0432C99.0943 19.4695 99.8871 18.4977 101.447 18.4977C102.905 18.4977 103.749 19.2393 103.749 20.3134C103.749 20.8504 103.416 21.2596 102.777 21.2596H100.603C97.7901 21.2596 95.8977 22.794 95.8977 25.3257C95.8977 27.525 97.6111 29.1872 100.117 29.1872C101.882 29.1872 103.314 28.3944 103.749 27.1925V28.9826H107.278V20.697C107.278 17.7817 104.899 15.8893 101.652 15.8893ZM101.012 26.6043C100.015 26.6043 99.2989 26.0162 99.2989 25.1723C99.2989 24.1749 100.066 23.51 101.14 23.51H103.749V23.689C103.749 25.3257 102.751 26.6043 101.012 26.6043Z" fill="white"/>
<path d="M108.644 28.9826H112.198V10.4934H108.644V28.9826Z" fill="white"/>
<path d="M114.086 28.9826H121.4C125.185 28.9826 127.794 27.0391 127.794 23.6379C127.794 21.2852 126.413 19.8531 124.776 19.2138C125.824 18.6512 126.873 17.3725 126.873 15.6847C126.873 12.6927 124.443 11.0816 121.196 11.0816H114.086V28.9826ZM117.871 17.9096V14.1248H120.838C122.551 14.1248 123.318 14.8152 123.318 16.0172C123.318 17.2191 122.551 17.9096 120.914 17.9096H117.871ZM117.871 25.6581V21.1573H121.068C123.19 21.1573 124.137 21.9756 124.137 23.4333C124.137 24.891 123.19 25.6581 121.068 25.6581H117.871Z" fill="white"/>
<path d="M133.977 15.8893C130.448 15.8893 128.351 17.9607 128.198 20.5436H131.369C131.42 19.4695 132.213 18.4977 133.773 18.4977C135.23 18.4977 136.074 19.2393 136.074 20.3134C136.074 20.8504 135.742 21.2596 135.103 21.2596H132.929C130.116 21.2596 128.223 22.794 128.223 25.3257C128.223 27.525 129.937 29.1872 132.443 29.1872C134.208 29.1872 135.64 28.3944 136.074 27.1925V28.9826H139.603V20.697C139.603 17.7817 137.225 15.8893 133.977 15.8893ZM133.338 26.6043C132.341 26.6043 131.625 26.0162 131.625 25.1723C131.625 24.1749 132.392 23.51 133.466 23.51H136.074V23.689C136.074 25.3257 135.077 26.6043 133.338 26.6043Z" fill="white"/>
<path d="M140.765 28.9826H144.345V21.9245C144.345 20.2623 145.445 19.0603 147.005 19.0603C148.488 19.0603 149.485 20.1855 149.485 21.7455V28.9826H153.065V20.9527C153.065 17.9863 151.173 15.8893 148.258 15.8893C146.493 15.8893 145.061 16.6309 144.345 17.884V16.0939H140.765V28.9826Z" fill="white"/>
<path d="M163.269 28.9826H167.565L162.016 21.1573L167.156 16.0939H162.655L158.18 20.4924V10.4934H154.6V28.9826H158.18V24.9421L159.612 23.5356L163.269 28.9826Z" fill="white"/>
</svg>
