<svg width="167" height="18" viewBox="0 0 167 18" fill="none" xmlns="http://www.w3.org/2000/svg">
<path id="Union" fill-rule="evenodd" clip-rule="evenodd" d="M55.3733 17.264C50.6873 17.264 47.6513 14.008 47.6513 8.96998C47.6513 3.97599 50.7973 0.653992 55.5053 0.653992C59.3113 0.653992 62.1493 2.87599 62.6993 6.32999H59.7293C59.1793 4.45999 57.5733 3.35999 55.4393 3.35999C52.4693 3.35999 50.5993 5.51599 50.5993 8.94798C50.5993 12.358 52.4913 14.558 55.4393 14.558C57.6173 14.558 59.2893 13.414 59.8173 11.632H62.7433C62.1273 15.02 59.1793 17.264 55.3733 17.264ZM64.8286 17H74.8166V14.404H67.6446V10.136H74.0686V7.65002H67.6446V3.51403H74.8166V0.91803H64.8286V17ZM80.2457 0.91803V14.404H86.9777V17H77.4297V0.91803H80.2457ZM92.7772 17H95.7032L97.0012 13.282H103.007L104.305 17H107.275L101.467 0.91803H98.5852L92.7772 17ZM97.8372 10.906L99.6632 5.71403C99.8172 5.27402 99.9492 4.79003 100.015 4.48203C100.058 4.806 100.208 5.27839 100.338 5.69105L100.345 5.71403L102.193 10.906H97.8372ZM115.21 11.456H111.668V17H108.852V0.91803H115.21C118.444 0.91803 120.534 3.03003 120.534 6.17602C120.534 9.27802 118.422 11.456 115.21 11.456ZM114.66 3.42603H111.668V8.94802H114.616C116.552 8.94802 117.586 7.91402 117.586 6.15402C117.586 4.39403 116.53 3.42603 114.66 3.42603ZM125.279 17V0.91803H122.463V17H125.279ZM126.995 3.51403V0.91803H139.227V3.51403H134.519V17H131.703V3.51403H126.995ZM140.198 0.91803V3.51403H144.906V17H147.722V3.51403H152.43V0.91803H140.198ZM152.86 0.91803L158.294 10.664V17H161.11V10.664L166.522 0.91803H163.464L160.318 6.77002C160.143 7.09217 160.043 7.31604 159.946 7.53158L159.945 7.53205L159.945 7.53254L159.945 7.5331C159.883 7.6703 159.823 7.8042 159.746 7.95802L159.721 7.90173L159.721 7.90124C159.555 7.528 159.404 7.18888 159.174 6.77002L156.006 0.91803H152.86ZM34.3199 17H37.1359V10.994H40.5899L43.3179 17H46.3979L43.3399 10.4C45.2319 9.63002 46.2439 8.09002 46.2439 5.93402C46.2439 2.76603 44.1099 0.91803 40.4579 0.91803H34.3199V17ZM37.1359 8.50802V3.42603H40.4579C42.2399 3.42603 43.2959 4.32803 43.2959 5.93402C43.2959 7.56202 42.2399 8.50802 40.4579 8.50802H37.1359ZM21.1714 17H18.2454L24.0534 0.91803H26.9354L32.7434 17H29.7734L28.4754 13.282H22.4694L21.1714 17ZM25.1314 5.71403L23.3054 10.906H27.6614L25.8134 5.71403L25.806 5.69082C25.6757 5.27821 25.5265 4.80594 25.4834 4.48203C25.4174 4.79003 25.2854 5.27402 25.1314 5.71403ZM0.781982 17H3.50998V11.236C3.50998 9.23402 3.48798 7.71602 3.33398 6.74802L7.40398 17H9.99998L14.092 6.72602C13.938 7.87002 13.938 8.81602 13.938 12.05V17H16.666V0.91803H13.894L8.70198 13.722L3.50998 0.91803H0.781982V17Z" fill="#111111"/>
</svg>
