<svg width="156" height="41" viewBox="0 0 156 41" fill="none" xmlns="http://www.w3.org/2000/svg">
<g clip-path="url(#clip0_2_4504)">
<path d="M23.2452 3.51339L19.6473 2.54932L16.6153 13.865L13.8779 3.64913L10.2799 4.6132L13.2375 15.6507L5.8709 8.2842L3.237 10.9181L11.3172 18.9984L1.2546 16.3021L0.290527 19.9L11.2852 22.846C11.1593 22.3031 11.0927 21.7374 11.0927 21.1561C11.0927 17.0417 14.4281 13.7063 18.5425 13.7063C22.6569 13.7063 25.9923 17.0417 25.9923 21.1561C25.9923 21.7336 25.9265 22.2959 25.8022 22.8356L35.7943 25.5129L36.7583 21.915L25.72 18.9573L35.7833 16.2608L34.8191 12.6629L23.7812 15.6205L31.1478 8.25395L28.5139 5.62006L20.5457 13.5882L23.2452 3.51339Z" fill="white"/>
<path d="M25.7917 22.8775C25.4832 24.1816 24.832 25.3532 23.9384 26.2919L31.1772 33.5308L33.8111 30.8969L25.7917 22.8775Z" fill="white"/>
<path d="M23.8653 26.3676C22.9609 27.2913 21.8181 27.9806 20.5364 28.3358L23.1705 38.1663L26.7684 37.2021L23.8653 26.3676Z" fill="white"/>
<path d="M20.402 28.3717C19.8074 28.5246 19.1842 28.6058 18.5419 28.6058C17.8538 28.6058 17.1874 28.5125 16.5548 28.3379L13.9184 38.1773L17.5163 39.1414L20.402 28.3717Z" fill="white"/>
<path d="M16.4276 28.3016C15.1656 27.9288 14.043 27.2307 13.1571 26.3043L5.90046 33.561L8.53435 36.1949L16.4276 28.3016Z" fill="white"/>
<path d="M13.0973 26.2402C12.2266 25.308 11.5924 24.1521 11.2905 22.868L1.26574 25.5542L2.22981 29.1521L13.0973 26.2402Z" fill="white"/>
</g>
<path d="M58.4085 11.0042V23.9696L50.0973 11.0042H46.7728V28.9052H50.0973V16.042L58.4085 28.9052H61.733V11.0042H58.4085Z" fill="white"/>
<path d="M63.231 14.3542H66.6578V11.0042H63.231V14.3542ZM63.2821 28.9052V16.1187H66.6066V28.9052H63.2821Z" fill="white"/>
<path d="M80.9105 22.512C80.9105 18.0878 77.765 15.9909 74.4405 15.9653C71.0905 15.9397 67.9961 18.0878 67.9961 22.512C67.9961 26.9361 71.0905 29.0842 74.4405 29.0586C77.4837 29.033 79.5807 27.6265 80.5524 25.2994L77.9696 24.2253C77.1768 25.8109 75.9237 26.3735 74.4405 26.399C73.1619 26.4246 71.7042 25.8109 71.3973 23.5349H80.8337C80.8849 23.2024 80.9105 22.87 80.9105 22.512ZM74.4405 18.5993C75.7192 18.6249 77.0234 19.3153 77.4325 21.1566H71.4485C71.8832 19.2898 73.1874 18.5737 74.4405 18.5993Z" fill="white"/>
<path d="M88.5935 18.497V15.9653H86.4965V12.5385L83.1721 13.5614V15.9653H81.0751V18.497H83.1721V25.1204C83.1721 27.6265 83.3766 28.9052 87.2637 28.9052H88.1588V25.9899H87.2637C86.65 25.9899 86.4965 25.8876 86.4965 25.1204V18.497H88.5935Z" fill="white"/>
<path d="M93.5335 26.1177L100.592 18.9062V16.1187H90.0044V18.9062H96.858L89.7998 26.1177V28.9052H100.668V26.1177H93.5335Z" fill="white"/>
<path d="M101.86 25.2994L105.21 24.7879C105.44 26.0666 106.949 26.5525 107.87 26.5525C108.816 26.5525 110.453 26.3479 110.453 24.8135C110.453 21.8215 102.244 25.5551 102.244 19.8268C102.244 16.1443 106.515 15.9397 107.87 15.9397C109.149 15.9397 112.857 16.1443 113.624 19.1108L110.453 19.7757C110.171 18.4203 108.739 18.1646 107.972 18.1646C107.205 18.1646 105.568 18.3436 105.568 19.8268C105.568 22.7933 113.777 19.0085 113.777 24.8135C113.777 28.7262 109.276 29.0586 107.87 29.0586C106.591 29.0586 102.525 28.7262 101.86 25.2994Z" fill="white"/>
<path d="M118.096 22.512C118.096 25.6319 119.758 26.578 121.497 26.5525C123.057 26.5269 124.131 25.8876 124.771 24.0975L127.507 25.4273C126.51 28.0357 124.08 29.033 121.497 29.0586C118.147 29.0842 114.772 26.9361 114.772 22.512C114.772 18.0878 118.147 15.9397 121.497 15.9653C124.08 15.9909 126.51 16.9882 127.507 19.5966L124.771 20.9264C124.131 19.1363 123.057 18.497 121.497 18.4714C119.758 18.4459 118.096 19.3921 118.096 22.512Z" fill="white"/>
<path d="M136.432 15.9141C134.718 15.9141 133.158 16.8092 132.161 18.7272V11.0042H128.836V28.9052H132.161V24.3788C132.161 18.5226 134.59 18.0367 135.485 18.0367C136.918 18.0367 137.122 19.5199 137.122 21.6936V28.9052H140.447V21.6936C140.447 18.9829 140.012 15.9141 136.432 15.9141Z" fill="white"/>
<path d="M154.482 22.512C154.482 18.0878 151.337 15.9909 148.013 15.9653C144.663 15.9397 141.568 18.0878 141.568 22.512C141.568 26.9361 144.663 29.0842 148.013 29.0586C151.056 29.033 153.153 27.6265 154.124 25.2994L151.542 24.2253C150.749 25.8109 149.496 26.3735 148.013 26.399C146.734 26.4246 145.276 25.8109 144.969 23.5349H154.406C154.457 23.2024 154.482 22.87 154.482 22.512ZM148.013 18.5993C149.291 18.6249 150.595 19.3153 151.005 21.1566H145.021C145.455 19.2898 146.759 18.5737 148.013 18.5993Z" fill="white"/>
<defs>
<clipPath id="clip0_2_4504">
<rect width="37.5069" height="37.5069" fill="white" transform="translate(0 1.70483)"/>
</clipPath>
</defs>
</svg>
