<svg width="297" height="93" viewBox="0 0 297 93" fill="none" xmlns="http://www.w3.org/2000/svg">
<path d="M2.43092 23.7535C2.70874 22.1329 3.49589 20.9291 4.79238 20.1419C6.08887 19.3084 8.24197 18.8917 11.2517 18.8917C12.8723 18.8917 14.1225 19.3084 15.0022 20.1419C15.9283 20.9754 16.3913 22.1329 16.3913 23.6146C16.3913 23.8462 16.3682 24.0545 16.3219 24.2397C16.2756 24.4249 16.2524 24.6333 16.2524 24.8648C15.7431 27.8745 15.3264 31 15.0022 34.2412C14.6781 37.4824 14.5161 40.77 14.5161 44.1038C14.5161 48.41 14.8865 52.4847 15.6273 56.3279C16.4145 60.1247 17.7804 63.4585 19.7252 66.3293C21.7162 69.1538 24.4018 71.3996 27.7819 73.0665C31.2084 74.6871 35.5609 75.4974 40.8394 75.4974C43.8028 75.4974 46.419 74.9649 48.6878 73.8999C50.9567 72.8349 52.832 71.3764 54.3137 69.5243C55.8417 67.6258 56.9761 65.4033 57.717 62.8566C58.5041 60.3099 58.8977 57.5549 58.8977 54.5915C58.8977 51.6281 58.5736 48.711 57.9253 45.8402C57.3234 42.9694 56.4899 40.1449 55.425 37.3667C54.4063 34.5422 53.2024 31.764 51.8133 29.0321C50.4705 26.3002 49.0351 23.5452 47.5071 20.767C46.8589 19.5168 46.5347 18.3824 46.5347 17.3637C46.5347 15.5579 47.484 14.0299 49.3824 12.7797L52.23 10.9044C53.4802 10.0709 54.661 9.65422 55.7722 9.65422C57.4855 9.65422 58.9209 10.696 60.0784 12.7797C61.838 15.882 63.528 19.0306 65.1486 22.2255C66.7692 25.3742 68.1815 28.6154 69.3854 31.9492C70.6356 35.283 71.6079 38.7326 72.3025 42.298C73.0433 45.817 73.4138 49.4518 73.4138 53.2024C73.4138 58.4347 72.534 63.2039 70.7745 67.5101C69.0613 71.8163 66.6072 75.5205 63.4123 78.6228C60.2173 81.6789 56.3742 84.0403 51.8828 85.7072C47.4377 87.4205 42.4832 88.2771 37.0194 88.2771C31.0926 88.2771 25.814 87.2352 21.1837 85.1516C16.5997 83.1143 12.7334 80.2898 9.58477 76.6781C6.43615 73.0202 4.05153 68.714 2.43092 63.7595C0.810306 58.7588 0 53.3413 0 47.5071C0 43.4324 0.231516 39.3577 0.694548 35.283C1.20388 31.1621 1.78267 27.3189 2.43092 23.7535Z" fill="#7000FF"/>
<path d="M82.2373 16.0441C82.2373 15.2106 82.4457 14.4466 82.8624 13.7521C83.2791 13.0112 83.8579 12.3861 84.5988 11.8768C85.3396 11.3211 86.1962 10.8813 87.1686 10.5571C88.1873 10.233 89.2522 10.0709 90.3635 10.0709C92.5398 10.0709 94.1372 10.4182 95.1559 11.1128C96.1746 11.8073 96.7997 12.8954 97.0312 14.3771C97.8183 20.5355 98.4666 26.3697 98.9759 31.8798C99.5316 37.3435 99.9714 42.5758 100.296 47.5765C100.62 52.531 100.851 57.3002 100.99 61.8842C101.129 66.422 101.198 70.8208 101.198 75.0807C101.198 77.3958 100.365 79.1322 98.6981 80.2898C97.0775 81.4473 94.6929 82.0261 91.5443 82.0261C90.1089 82.0261 88.9744 81.6789 88.141 80.9843C87.3538 80.3361 86.9602 79.3637 86.9602 78.0672C86.9602 70.1031 86.7056 62.6482 86.1962 55.7028C85.7332 48.711 85.2007 42.5063 84.5988 37.0889C83.9968 31.6714 83.4412 27.1568 82.9319 23.5452C82.4688 19.8872 82.2373 17.3869 82.2373 16.0441Z" fill="#7000FF"/>
<path d="M125.372 3.68111C125.835 1.55116 127.177 0.416729 129.4 0.277819L135.929 0C137.271 0.0926064 138.174 0.43988 138.637 1.04182C139.1 1.64376 139.332 2.61613 139.332 3.95892C136.878 18.3592 134.331 32.7364 131.692 47.0904C129.053 61.3981 126.043 75.7057 122.663 90.0134C122.385 91.2173 121.899 92.0045 121.204 92.3749C120.51 92.7916 119.584 93 118.426 93L112.175 92.3055C111.156 92.2128 110.369 91.8887 109.814 91.3331C109.304 90.8237 109.05 90.106 109.05 89.18C109.05 89.0411 109.05 88.8559 109.05 88.6243C109.05 88.4391 109.096 88.2308 109.189 87.9993C111.272 78.3219 113.101 69.5706 114.675 61.7453C116.296 53.8738 117.732 46.6042 118.982 39.9365C120.278 33.2226 121.436 26.9485 122.454 21.1143C123.473 15.2338 124.445 9.4227 125.372 3.68111Z" fill="#7000FF"/>
<path d="M144.335 23.7535C144.613 22.1329 145.4 20.9291 146.697 20.1419C147.993 19.3084 150.147 18.8917 153.156 18.8917C154.777 18.8917 156.027 19.3084 156.907 20.1419C157.833 20.9754 158.296 22.1329 158.296 23.6146C158.296 23.8462 158.273 24.0545 158.226 24.2397C158.18 24.4249 158.157 24.6333 158.157 24.8648C157.648 27.8745 157.231 31 156.907 34.2412C156.583 37.4824 156.421 40.77 156.421 44.1038C156.421 48.41 156.791 52.4847 157.532 56.3279C158.319 60.1247 159.685 63.4585 161.63 66.3293C163.621 69.1538 166.306 71.3996 169.687 73.0665C173.113 74.6871 177.465 75.4974 182.744 75.4974C185.707 75.4974 188.324 74.9649 190.592 73.8999C192.861 72.8349 194.737 71.3764 196.218 69.5243C197.746 67.6258 198.881 65.4033 199.622 62.8566C200.409 60.3099 200.802 57.5549 200.802 54.5915C200.802 51.6281 200.478 48.711 199.83 45.8402C199.228 42.9694 198.395 40.1449 197.33 37.3667C196.311 34.5422 195.107 31.764 193.718 29.0321C192.375 26.3002 190.94 23.5452 189.412 20.767C188.763 19.5168 188.439 18.3824 188.439 17.3637C188.439 15.5579 189.389 14.0299 191.287 12.7797L194.135 10.9044C195.385 10.0709 196.566 9.65422 197.677 9.65422C199.39 9.65422 200.825 10.696 201.983 12.7797C203.743 15.882 205.433 19.0306 207.053 22.2255C208.674 25.3742 210.086 28.6154 211.29 31.9492C212.54 35.283 213.513 38.7326 214.207 42.298C214.948 45.817 215.318 49.4518 215.318 53.2024C215.318 58.4347 214.439 63.2039 212.679 67.5101C210.966 71.8163 208.512 75.5205 205.317 78.6228C202.122 81.6789 198.279 84.0403 193.787 85.7072C189.342 87.4205 184.388 88.2771 178.924 88.2771C172.997 88.2771 167.719 87.2352 163.088 85.1516C158.504 83.1143 154.638 80.2898 151.489 76.6781C148.341 73.0202 145.956 68.714 144.335 63.7595C142.715 58.7588 141.905 53.3413 141.905 47.5071C141.905 43.4324 142.136 39.3577 142.599 35.283C143.108 31.1621 143.687 27.3189 144.335 23.7535Z" fill="#7000FF"/>
<path d="M244.075 79.5258C243.057 81.9798 241.506 83.2069 239.422 83.2069C238.588 83.2069 237.639 82.9753 236.574 82.5123L234.699 81.6094C232.43 80.4981 231.296 78.947 231.296 76.9559C231.296 75.9373 231.481 74.9881 231.851 74.1083C233.287 70.7282 234.838 67.2323 236.505 63.6206C238.172 59.9627 239.931 56.2352 241.783 52.4384C241.922 52.068 242.061 51.7207 242.2 51.3966C242.339 51.0724 242.408 50.7715 242.408 50.4937C242.408 49.3824 241.83 48.3869 240.672 47.5071C236.783 44.59 232.916 41.6729 229.073 38.7558C225.276 35.7924 221.41 32.8753 217.474 30.0045C215.761 28.8006 214.904 27.4115 214.904 25.8372C214.904 25.1889 215.02 24.5639 215.252 23.9619C215.483 23.3137 215.9 22.6654 216.502 22.0172L218.447 19.7252C219.789 18.1509 221.271 17.3637 222.892 17.3637C223.447 17.3637 224.003 17.5026 224.559 17.7804C225.161 18.0119 225.786 18.3361 226.434 18.7528C229.86 21.2532 233.24 23.7535 236.574 26.2539C239.954 28.708 243.311 31.2315 246.645 33.8245C247.062 34.1023 247.456 34.3338 247.826 34.519C248.196 34.7043 248.567 34.7969 248.937 34.7969C249.956 34.7969 250.859 34.1486 251.646 32.8521C253.869 28.5459 256.161 24.286 258.522 20.0724C260.883 15.8588 263.314 11.7147 265.815 7.64003C267.065 5.7416 268.547 4.79238 270.26 4.79238C271.232 4.79238 272.367 5.18596 273.663 5.97311L274.774 6.66766C276.673 7.91785 277.622 9.3764 277.622 11.0433C277.622 11.6453 277.529 12.2472 277.344 12.8491C277.159 13.4048 276.881 14.0067 276.511 14.655C273.779 19.0075 271.186 23.4063 268.732 27.8514C266.278 32.2965 263.893 36.8111 261.578 41.3951C261.439 41.7655 261.3 42.0896 261.161 42.3674C261.069 42.6453 261.022 42.9231 261.022 43.2009C261.022 44.3585 261.578 45.354 262.689 46.1875C268.06 50.3547 273.385 54.5452 278.664 58.7588C283.943 62.9261 289.244 67.0471 294.569 71.1217C296.19 72.3719 297 73.7379 297 75.2196C297 76.6087 296.282 77.9283 294.847 79.1785L292.416 81.3316C291.073 82.5818 289.707 83.2069 288.318 83.2069C287.068 83.2069 285.795 82.6744 284.498 81.6094L256.994 60.1479C256.577 59.8701 256.184 59.6385 255.813 59.4533C255.489 59.2681 255.142 59.1755 254.771 59.1755C253.66 59.1755 252.757 59.8701 252.063 61.2591L244.075 79.5258Z" fill="#7000FF"/>
</svg>
